<mxfile host="app.diagrams.net" modified="2021-01-26T09:59:04.807Z" agent="5.0 (Windows)" etag="LlmHLHfPPpOWCYYfawrR" version="14.2.3" type="github">
  <diagram id="6a731a19-8d31-9384-78a2-239565b7b9f0" name="Page-1">
    <mxGraphModel dx="1662" dy="911" grid="1" gridSize="10" guides="1" tooltips="1" connect="1" arrows="1" fold="1" page="1" pageScale="1" pageWidth="827" pageHeight="1169" background="#ffffff" math="0" shadow="0">
      <root>
        <mxCell id="0" />
        <mxCell id="1" parent="0" />
        <mxCell id="8gX1Jn1wQU9M7onOEL6F-2266" value="" style="edgeStyle=orthogonalEdgeStyle;rounded=0;orthogonalLoop=1;jettySize=auto;html=1;" edge="1" parent="1" target="8gX1Jn1wQU9M7onOEL6F-2265">
          <mxGeometry relative="1" as="geometry">
            <mxPoint x="81" y="500" as="sourcePoint" />
          </mxGeometry>
        </mxCell>
        <mxCell id="8gX1Jn1wQU9M7onOEL6F-2257" value="" style="shape=mxgraph.cisco.switches.workgroup_switch;html=1;pointerEvents=1;dashed=0;fillColor=#036897;strokeColor=#ffffff;strokeWidth=2;verticalLabelPosition=bottom;verticalAlign=top;align=center;outlineConnect=0;" vertex="1" parent="1">
          <mxGeometry x="30" y="360" width="101" height="50" as="geometry" />
        </mxCell>
        <mxCell id="8gX1Jn1wQU9M7onOEL6F-2260" value="" style="edgeStyle=orthogonalEdgeStyle;rounded=0;orthogonalLoop=1;jettySize=auto;html=1;entryX=0.5;entryY=0.98;entryDx=0;entryDy=0;entryPerimeter=0;" edge="1" parent="1" source="8gX1Jn1wQU9M7onOEL6F-2258" target="8gX1Jn1wQU9M7onOEL6F-2261">
          <mxGeometry relative="1" as="geometry" />
        </mxCell>
        <mxCell id="8gX1Jn1wQU9M7onOEL6F-2258" value="" style="shape=mxgraph.cisco.routers.router;html=1;pointerEvents=1;dashed=0;fillColor=#036897;strokeColor=#ffffff;strokeWidth=2;verticalLabelPosition=bottom;verticalAlign=top;align=center;outlineConnect=0;" vertex="1" parent="1">
          <mxGeometry x="42" y="1070" width="78" height="53" as="geometry" />
        </mxCell>
        <mxCell id="8gX1Jn1wQU9M7onOEL6F-2264" value="" style="edgeStyle=orthogonalEdgeStyle;rounded=0;orthogonalLoop=1;jettySize=auto;html=1;" edge="1" parent="1" source="8gX1Jn1wQU9M7onOEL6F-2261" target="8gX1Jn1wQU9M7onOEL6F-2263">
          <mxGeometry relative="1" as="geometry" />
        </mxCell>
        <mxCell id="8gX1Jn1wQU9M7onOEL6F-2269" style="edgeStyle=orthogonalEdgeStyle;rounded=0;orthogonalLoop=1;jettySize=auto;html=1;exitX=0.5;exitY=0;exitDx=0;exitDy=0;exitPerimeter=0;entryX=0;entryY=0.5;entryDx=0;entryDy=0;entryPerimeter=0;" edge="1" parent="1" source="8gX1Jn1wQU9M7onOEL6F-2261" target="8gX1Jn1wQU9M7onOEL6F-2267">
          <mxGeometry relative="1" as="geometry" />
        </mxCell>
        <mxCell id="8gX1Jn1wQU9M7onOEL6F-2261" value="" style="shape=mxgraph.cisco.switches.workgroup_switch;html=1;pointerEvents=1;dashed=0;fillColor=#036897;strokeColor=#ffffff;strokeWidth=2;verticalLabelPosition=bottom;verticalAlign=top;align=center;outlineConnect=0;" vertex="1" parent="1">
          <mxGeometry x="30" y="950" width="101" height="50" as="geometry" />
        </mxCell>
        <mxCell id="8gX1Jn1wQU9M7onOEL6F-2262" value="" style="endArrow=classic;html=1;exitX=0.5;exitY=0;exitDx=0;exitDy=0;exitPerimeter=0;entryX=0.5;entryY=0.98;entryDx=0;entryDy=0;entryPerimeter=0;" edge="1" parent="1" source="8gX1Jn1wQU9M7onOEL6F-2261" target="8gX1Jn1wQU9M7onOEL6F-2257">
          <mxGeometry width="50" height="50" relative="1" as="geometry">
            <mxPoint x="280" y="840" as="sourcePoint" />
            <mxPoint x="330" y="790" as="targetPoint" />
            <Array as="points" />
          </mxGeometry>
        </mxCell>
        <mxCell id="8gX1Jn1wQU9M7onOEL6F-2263" value="" style="shape=mxgraph.cisco.routers.wireless_router;html=1;pointerEvents=1;dashed=0;fillColor=#036897;strokeColor=#ffffff;strokeWidth=2;verticalLabelPosition=bottom;verticalAlign=top;align=center;outlineConnect=0;" vertex="1" parent="1">
          <mxGeometry x="240" y="936" width="78" height="77" as="geometry" />
        </mxCell>
        <mxCell id="8gX1Jn1wQU9M7onOEL6F-2265" value="" style="shape=mxgraph.cisco.routers.wireless_router;html=1;pointerEvents=1;dashed=0;fillColor=#036897;strokeColor=#ffffff;strokeWidth=2;verticalLabelPosition=bottom;verticalAlign=top;align=center;outlineConnect=0;" vertex="1" parent="1">
          <mxGeometry x="240" y="462" width="78" height="77" as="geometry" />
        </mxCell>
        <mxCell id="8gX1Jn1wQU9M7onOEL6F-2267" value="" style="shape=mxgraph.cisco.routers.wireless_router;html=1;pointerEvents=1;dashed=0;fillColor=#036897;strokeColor=#ffffff;strokeWidth=2;verticalLabelPosition=bottom;verticalAlign=top;align=center;outlineConnect=0;" vertex="1" parent="1">
          <mxGeometry x="240" y="681" width="78" height="77" as="geometry" />
        </mxCell>
      </root>
    </mxGraphModel>
  </diagram>
</mxfile>
